<?xml version="1.0" encoding="UTF-8"?>
<svg version="1.1" xmlns="http://www.w3.org/2000/svg" width="653" height="658">
<path d="M0 0 C0.66 0 1.32 0 2 0 C2.50337891 1.12269287 3.00675781 2.24538574 3.52539062 3.40209961 C5.43235387 7.65410526 7.34138612 11.90517953 9.25097656 16.15600586 C10.06988157 17.97965417 10.8882597 19.80353919 11.70605469 21.62768555 C21.43765411 44.18320053 21.43765411 44.18320053 33 65.8125 C33.42168457 66.5149585 33.84336914 67.21741699 34.27783203 67.94116211 C44.40216269 84.68053994 56.05374714 100.3421469 69 115 C69.46341797 115.52658203 69.92683594 116.05316406 70.40429688 116.59570312 C82.38506165 130.12131274 95.54279982 142.1757495 110 153 C110.66837891 153.50885742 111.33675781 154.01771484 112.02539062 154.54199219 C123.77243449 163.4634544 136.04749932 170.96401859 149 178 C150.06710205 178.59554687 151.1342041 179.19109375 152.23364258 179.8046875 C162.94476847 185.72150604 174.07653632 190.55068605 185.3125 195.375 C188.11706624 196.58139451 190.92074729 197.78967449 193.7219696 199.0038147 C195.44832365 199.75193702 197.17661804 200.49560184 198.90705872 201.23422241 C199.67934311 201.56862335 200.4516275 201.90302429 201.24731445 202.24755859 C202.2653289 202.6843544 202.2653289 202.6843544 203.3039093 203.12997437 C205 204 205 204 207 206 C197.40554996 210.99557889 187.65467906 215.52677368 177.75 219.875 C147.00348439 233.45485238 117.61116858 249.76137736 93 273 C91.77468297 274.04619229 90.54552364 275.08790172 89.3125 276.125 C78.94142551 285.18915047 69.48270553 295.1618156 61 306 C60.08500093 307.10532964 59.1668421 308.20804871 58.24609375 309.30859375 C34.2147529 338.25336152 19.0342121 372.48704733 4.04052734 406.65942383 C3.3910673 408.12032797 2.71498801 409.57002398 2 411 C1.34 411 0.68 411 0 411 C-0.50337891 409.87207031 -1.00675781 408.74414062 -1.52539062 407.58203125 C-3.43035311 403.31610803 -5.34002315 399.05230498 -7.25097656 394.7890625 C-8.07058095 392.95889038 -8.8889811 391.12817839 -9.70605469 389.296875 C-22.67642842 360.23304 -36.97140712 332.87286028 -57 308 C-57.6180249 307.225354 -57.6180249 307.225354 -58.24853516 306.43505859 C-65.00859229 298.0336814 -72.46543429 290.3286378 -80.0625 282.6875 C-81.42713379 281.30896851 -81.42713379 281.30896851 -82.81933594 279.90258789 C-88.90493841 273.84488597 -95.2529924 268.30787173 -102 263 C-102.6794165 262.46125244 -103.35883301 261.92250488 -104.05883789 261.36743164 C-114.54942609 253.13661069 -125.54602676 245.8171462 -137 239 C-138.19230225 238.2894043 -138.19230225 238.2894043 -139.40869141 237.56445312 C-155.99788606 227.81750741 -173.61747309 220.28670693 -191.23681641 212.63671875 C-195.50306168 210.78415963 -199.75377015 208.89797275 -204 207 C-203 204 -203 204 -199.48779297 202.19750977 C-197.91045626 201.51818798 -196.32815256 200.85033265 -194.7421875 200.19140625 C-192.99495065 199.44287991 -191.24771773 198.69434439 -189.50048828 197.94580078 C-188.12186615 197.36236908 -188.12186615 197.36236908 -186.71539307 196.76715088 C-181.97962358 194.75864405 -177.26236316 192.70793496 -172.546875 190.65234375 C-171.62089508 190.24870605 -170.69491516 189.84506836 -169.74087524 189.42919922 C-127.46903124 170.90177141 -87.80689522 142.33001827 -59 106 C-58.0790954 104.89003773 -57.15580189 103.78205432 -56.23046875 102.67578125 C-30.98784474 72.24809526 -15.37345825 36.04823602 0 0 Z " fill="#FDBF0E" transform="translate(325,124)"/>
<path d="M0 0 C74.89644935 9.44490622 148.38545847 48.77560724 197 107 C197.44150391 107.52239258 197.88300781 108.04478516 198.33789062 108.58300781 C212.29818446 125.15056491 224.31478275 142.64927143 234.71289062 161.65625 C235.84640458 163.72031182 237.00288784 165.76841739 238.171875 167.8125 C255.89333961 199.24482775 266.16432967 235.41116307 271 271 C265.09336072 269.81964609 259.53069354 268.2764188 253.90625 266.12890625 C252.79464508 265.71174095 252.79464508 265.71174095 251.6605835 265.28614807 C249.27080322 264.38576389 246.88513571 263.47511056 244.5 262.5625 C243.68108276 262.2510907 242.86216553 261.9396814 242.01843262 261.61883545 C228.67868094 256.53976613 215.53305688 251.14204014 202.56152344 245.17578125 C200.2175632 244.09986508 197.8649356 243.0466686 195.5078125 242 C165.79124141 228.63117584 137.43286094 210.5544691 113 189 C112.22398437 188.33484375 111.44796875 187.6696875 110.6484375 186.984375 C97.81038679 175.77865376 85.31296545 163.58495047 75 150 C74.25492187 149.071875 73.50984375 148.14375 72.7421875 147.1875 C59.81269874 130.89052381 49.01389601 113.19836571 39 95 C38.60506348 94.29520508 38.21012695 93.59041016 37.80322266 92.86425781 C23.09120777 66.6005396 12.3839061 38.03812894 2.25 9.75 C2.00975098 9.08339355 1.76950195 8.41678711 1.52197266 7.72998047 C0.56730329 4.99591963 0 2.92442395 0 0 Z " fill="#E33133" transform="translate(371,14)"/>
<path d="M0 0 C-4.6285738 32.3603053 -13.65876563 63.58441592 -28 93 C-28.47566406 93.97727051 -28.95132813 94.95454102 -29.44140625 95.96142578 C-39.090345 115.57702728 -50.44832474 133.8362525 -64 151 C-64.71285156 151.90492188 -65.42570313 152.80984375 -66.16015625 153.7421875 C-70.99883548 159.76706852 -76.10973822 165.48813272 -81.3671875 171.14453125 C-83.68931365 173.66303899 -85.94538536 176.22307741 -88.1875 178.8125 C-91.17952027 182.19136733 -94.32207195 185.17078988 -97.76953125 188.078125 C-100.40407904 190.34817319 -102.9087544 192.73769856 -105.4375 195.125 C-146.03097308 232.72579653 -214.05028583 271.15195376 -271 270 C-268.78543976 261.01031719 -265.71275145 252.39568545 -262.4375 243.75 C-262.04075073 242.69786819 -262.04075073 242.69786819 -261.63598633 241.6244812 C-246.29117155 201.00480443 -227.64586179 159.85207567 -200 126 C-199.24203125 125.05125 -198.4840625 124.1025 -197.703125 123.125 C-193.37294894 117.74960903 -188.88572087 112.54906364 -184.23046875 107.453125 C-182.77733687 105.85493442 -181.34137557 104.24090744 -179.92578125 102.609375 C-137.26481929 53.71880861 -74.61490985 25.58141007 -14.875 3.75 C-13.83182617 3.36674561 -12.78865234 2.98349121 -11.71386719 2.58862305 C-10.27382324 2.07295776 -10.27382324 2.07295776 -8.8046875 1.546875 C-7.96921387 1.24620117 -7.13374023 0.94552734 -6.27294922 0.63574219 C-4 0 -4 0 0 0 Z " fill="#E33133" transform="translate(642,375)"/>
<path d="M0 0 C-0.57563977 5.05922951 -1.68237077 9.40430059 -3.44921875 14.21484375 C-3.69816391 14.89489471 -3.94710907 15.57494568 -4.20359802 16.27560425 C-5.02243983 18.49974439 -5.85362028 20.71895716 -6.6875 22.9375 C-6.97389343 23.70444183 -7.26028687 24.47138367 -7.55535889 25.26156616 C-26.82311809 76.72898913 -51.67964787 125.19804383 -89 166 C-89.91088242 167.01497377 -90.821009 168.03062626 -91.73046875 169.046875 C-96.26223922 174.08757765 -100.80955559 178.96697364 -106.01953125 183.32421875 C-107.38238168 184.47739989 -108.71205584 185.67057686 -110.01171875 186.89453125 C-144.03123606 218.89543846 -220.21766871 271 -270 271 C-269.54057302 262.37550068 -268.45173348 254.20809291 -266.4375 245.8125 C-266.17283936 244.69810547 -265.90817871 243.58371094 -265.63549805 242.43554688 C-252.44037306 188.20879727 -226.5917984 140.12183548 -189 99 C-187.71802734 97.56140625 -187.71802734 97.56140625 -186.41015625 96.09375 C-179.99666147 88.92504297 -173.22485481 82.34584611 -166 76 C-165.25459961 75.33750244 -165.25459961 75.33750244 -164.49414062 74.66162109 C-123.04700853 37.94632523 -56.93344975 0 0 0 Z " fill="#E33133" transform="translate(281,14)"/>
<path d="M0 0 C7.85735877 1.50746755 15.19663865 4.03762691 22.6875 6.8125 C23.3369458 7.05198364 23.9863916 7.29146729 24.65551758 7.53820801 C63.48794484 21.90879964 101.31912643 39.74977103 135 64 C135.67546875 64.4846875 136.3509375 64.969375 137.046875 65.46875 C145.26970573 71.40402632 153.02508481 77.59054098 160.40234375 84.55078125 C162.57698629 86.6011585 164.78671537 88.56443367 167.0625 90.5 C174.97029376 97.36989583 182.28738346 104.96621241 189 113 C189.41878418 113.4837207 189.83756836 113.96744141 190.26904297 114.46582031 C206.61708688 133.3701859 220.27447458 154.97174392 232 177 C232.53512207 177.99918457 233.07024414 178.99836914 233.62158203 180.02783203 C270 248.60287921 270 248.60287921 270 270 C263.12714804 270.40897958 256.75238947 268.9036025 250.0625 267.4375 C248.82266357 267.16647461 247.58282715 266.89544922 246.30541992 266.61621094 C197.16849913 255.62782535 152.00141612 233.84851566 113 202 C112.20190918 201.35853027 112.20190918 201.35853027 111.38769531 200.70410156 C103.01204831 193.9452563 95.31450266 186.52054253 87.6875 178.9375 C86.76839844 178.02766357 85.84929687 177.11782715 84.90234375 176.18041992 C78.84234319 170.0925057 73.34766589 163.7166368 68 157 C66.98785984 155.77965339 65.97270691 154.56179228 64.953125 153.34765625 C32.55897892 114.23793648 -1.05862808 52.33592593 0 0 Z " fill="#E33133" transform="translate(11,375)"/>
</svg>
